<mxfile host="Electron" agent="Mozilla/5.0 (Macintosh; Intel Mac OS X 10_15_7) AppleWebKit/537.36 (KHTML, like Gecko) draw.io/26.1.1 Chrome/132.0.6834.210 Electron/34.3.3 Safari/537.36" version="26.1.1">
  <diagram name="Page-1" id="c4acf3e9-155e-7222-9cf6-157b1a14988f">
    <mxGraphModel dx="1114" dy="999" grid="1" gridSize="10" guides="1" tooltips="1" connect="1" arrows="1" fold="1" page="1" pageScale="1" pageWidth="827" pageHeight="1169" background="none" math="0" shadow="0">
      <root>
        <mxCell id="0" />
        <mxCell id="1" parent="0" />
        <mxCell id="17acba5748e5396b-2" value="User" style="swimlane;html=1;fontStyle=0;childLayout=stackLayout;horizontal=1;startSize=20;fillColor=none;horizontalStack=0;resizeParent=1;resizeLast=0;collapsible=1;marginBottom=0;swimlaneFillColor=#ffffff;rounded=0;shadow=0;comic=0;labelBackgroundColor=none;strokeWidth=1;fontFamily=Verdana;fontSize=10;align=center;" parent="1" vertex="1">
          <mxGeometry x="354" y="230" width="150" height="82" as="geometry" />
        </mxCell>
        <mxCell id="faoZJ6lqI0ZCR2FM0-Pu-2" value="" style="endArrow=block;startArrow=none;endFill=0;startFill=0;endSize=8;html=1;verticalAlign=bottom;labelBackgroundColor=none;rounded=0;entryX=1;entryY=1;entryDx=0;entryDy=0;" edge="1" parent="17acba5748e5396b-2" target="5d2195bd80daf111-5">
          <mxGeometry width="160" relative="1" as="geometry">
            <mxPoint x="60" as="sourcePoint" />
            <mxPoint x="220" as="targetPoint" />
          </mxGeometry>
        </mxCell>
        <mxCell id="5d2195bd80daf111-5" value="Value" style="swimlane;html=1;fontStyle=0;childLayout=stackLayout;horizontal=1;startSize=26;fillColor=none;horizontalStack=0;resizeParent=1;resizeLast=0;collapsible=1;marginBottom=0;swimlaneFillColor=#ffffff;rounded=0;shadow=0;comic=0;labelBackgroundColor=none;strokeWidth=1;fontFamily=Verdana;fontSize=10;align=center;" parent="1" vertex="1">
          <mxGeometry x="204" y="50" width="130" height="83" as="geometry" />
        </mxCell>
        <mxCell id="faoZJ6lqI0ZCR2FM0-Pu-35" value="+ uses: vector&amp;lt;Use*&amp;gt;" style="text;strokeColor=none;fillColor=none;align=left;verticalAlign=top;spacingLeft=4;spacingRight=4;overflow=hidden;rotatable=0;points=[[0,0.5],[1,0.5]];portConstraint=eastwest;whiteSpace=wrap;html=1;" vertex="1" parent="5d2195bd80daf111-5">
          <mxGeometry y="26" width="130" height="26" as="geometry" />
        </mxCell>
        <mxCell id="faoZJ6lqI0ZCR2FM0-Pu-44" value="+ type: Type *" style="text;strokeColor=none;fillColor=none;align=left;verticalAlign=top;spacingLeft=4;spacingRight=4;overflow=hidden;rotatable=0;points=[[0,0.5],[1,0.5]];portConstraint=eastwest;whiteSpace=wrap;html=1;" vertex="1" parent="5d2195bd80daf111-5">
          <mxGeometry y="52" width="130" height="26" as="geometry" />
        </mxCell>
        <mxCell id="faoZJ6lqI0ZCR2FM0-Pu-3" value="Constant" style="swimlane;html=1;fontStyle=0;childLayout=stackLayout;horizontal=1;startSize=26;fillColor=none;horizontalStack=0;resizeParent=1;resizeLast=0;collapsible=1;marginBottom=0;swimlaneFillColor=#ffffff;rounded=0;shadow=0;comic=0;labelBackgroundColor=none;strokeWidth=1;fontFamily=Verdana;fontSize=10;align=center;" vertex="1" parent="1">
          <mxGeometry x="170" y="402" width="120" height="78" as="geometry" />
        </mxCell>
        <mxCell id="faoZJ6lqI0ZCR2FM0-Pu-4" value="" style="endArrow=block;startArrow=none;endFill=0;startFill=0;endSize=8;html=1;verticalAlign=bottom;labelBackgroundColor=none;rounded=0;entryX=0.25;entryY=1;entryDx=0;entryDy=0;" edge="1" parent="faoZJ6lqI0ZCR2FM0-Pu-3" target="17acba5748e5396b-2">
          <mxGeometry width="160" relative="1" as="geometry">
            <mxPoint x="60" as="sourcePoint" />
            <mxPoint x="220" as="targetPoint" />
          </mxGeometry>
        </mxCell>
        <mxCell id="faoZJ6lqI0ZCR2FM0-Pu-5" value="Instruction" style="swimlane;html=1;fontStyle=0;childLayout=stackLayout;horizontal=1;startSize=26;fillColor=none;horizontalStack=0;resizeParent=1;resizeLast=0;collapsible=1;marginBottom=0;swimlaneFillColor=#ffffff;rounded=0;shadow=0;comic=0;labelBackgroundColor=none;strokeWidth=1;fontFamily=Verdana;fontSize=10;align=center;" vertex="1" parent="1">
          <mxGeometry x="536" y="400" width="120" height="82" as="geometry" />
        </mxCell>
        <mxCell id="faoZJ6lqI0ZCR2FM0-Pu-6" value="" style="endArrow=block;startArrow=none;endFill=0;startFill=0;endSize=8;html=1;verticalAlign=bottom;labelBackgroundColor=none;rounded=0;entryX=0.75;entryY=1;entryDx=0;entryDy=0;" edge="1" parent="faoZJ6lqI0ZCR2FM0-Pu-5" target="17acba5748e5396b-2">
          <mxGeometry width="160" relative="1" as="geometry">
            <mxPoint x="60" as="sourcePoint" />
            <mxPoint x="-80" y="-50" as="targetPoint" />
          </mxGeometry>
        </mxCell>
        <mxCell id="faoZJ6lqI0ZCR2FM0-Pu-7" value="EntryInstruction" style="swimlane;html=1;fontStyle=0;childLayout=stackLayout;horizontal=1;startSize=26;fillColor=none;horizontalStack=0;resizeParent=1;resizeLast=0;collapsible=1;marginBottom=0;swimlaneFillColor=#ffffff;rounded=0;shadow=0;comic=0;labelBackgroundColor=none;strokeWidth=1;fontFamily=Verdana;fontSize=10;align=center;" vertex="1" parent="1">
          <mxGeometry x="376" y="600" width="120" height="82" as="geometry" />
        </mxCell>
        <mxCell id="faoZJ6lqI0ZCR2FM0-Pu-8" value="" style="endArrow=block;startArrow=none;endFill=0;startFill=0;endSize=8;html=1;verticalAlign=bottom;labelBackgroundColor=none;rounded=0;entryX=0;entryY=1;entryDx=0;entryDy=0;" edge="1" parent="faoZJ6lqI0ZCR2FM0-Pu-7" target="faoZJ6lqI0ZCR2FM0-Pu-5">
          <mxGeometry width="160" relative="1" as="geometry">
            <mxPoint x="60" as="sourcePoint" />
            <mxPoint x="140" y="-140" as="targetPoint" />
          </mxGeometry>
        </mxCell>
        <mxCell id="faoZJ6lqI0ZCR2FM0-Pu-9" value="ExitInstruction" style="swimlane;html=1;fontStyle=0;childLayout=stackLayout;horizontal=1;startSize=26;fillColor=none;horizontalStack=0;resizeParent=1;resizeLast=0;collapsible=1;marginBottom=0;swimlaneFillColor=#ffffff;rounded=0;shadow=0;comic=0;labelBackgroundColor=none;strokeWidth=1;fontFamily=Verdana;fontSize=10;align=center;" vertex="1" parent="1">
          <mxGeometry x="538" y="600" width="120" height="82" as="geometry" />
        </mxCell>
        <mxCell id="faoZJ6lqI0ZCR2FM0-Pu-10" value="" style="endArrow=block;startArrow=none;endFill=0;startFill=0;endSize=8;html=1;verticalAlign=bottom;labelBackgroundColor=none;rounded=0;entryX=0.5;entryY=1;entryDx=0;entryDy=0;" edge="1" parent="faoZJ6lqI0ZCR2FM0-Pu-9" target="faoZJ6lqI0ZCR2FM0-Pu-5">
          <mxGeometry width="160" relative="1" as="geometry">
            <mxPoint x="60" as="sourcePoint" />
            <mxPoint x="130" y="-120" as="targetPoint" />
          </mxGeometry>
        </mxCell>
        <mxCell id="faoZJ6lqI0ZCR2FM0-Pu-11" value="BinaryInstruction" style="swimlane;html=1;fontStyle=0;childLayout=stackLayout;horizontal=1;startSize=26;fillColor=none;horizontalStack=0;resizeParent=1;resizeLast=0;collapsible=1;marginBottom=0;swimlaneFillColor=#ffffff;rounded=0;shadow=0;comic=0;labelBackgroundColor=none;strokeWidth=1;fontFamily=Verdana;fontSize=10;align=center;" vertex="1" parent="1">
          <mxGeometry x="706" y="600" width="120" height="82" as="geometry" />
        </mxCell>
        <mxCell id="faoZJ6lqI0ZCR2FM0-Pu-12" value="" style="endArrow=block;startArrow=none;endFill=0;startFill=0;endSize=8;html=1;verticalAlign=bottom;labelBackgroundColor=none;rounded=0;entryX=1;entryY=1;entryDx=0;entryDy=0;" edge="1" parent="faoZJ6lqI0ZCR2FM0-Pu-11" target="faoZJ6lqI0ZCR2FM0-Pu-5">
          <mxGeometry width="160" relative="1" as="geometry">
            <mxPoint x="60" as="sourcePoint" />
            <mxPoint x="-200" y="-120" as="targetPoint" />
          </mxGeometry>
        </mxCell>
        <mxCell id="faoZJ6lqI0ZCR2FM0-Pu-13" value="GlobalValue" style="swimlane;html=1;fontStyle=0;childLayout=stackLayout;horizontal=1;startSize=26;fillColor=none;horizontalStack=0;resizeParent=1;resizeLast=0;collapsible=1;marginBottom=0;swimlaneFillColor=#ffffff;rounded=0;shadow=0;comic=0;labelBackgroundColor=none;strokeWidth=1;fontFamily=Verdana;fontSize=10;align=center;" vertex="1" parent="1">
          <mxGeometry x="170" y="560" width="120" height="78" as="geometry" />
        </mxCell>
        <mxCell id="faoZJ6lqI0ZCR2FM0-Pu-14" value="" style="endArrow=block;startArrow=none;endFill=0;startFill=0;endSize=8;html=1;verticalAlign=bottom;labelBackgroundColor=none;rounded=0;entryX=0.5;entryY=1;entryDx=0;entryDy=0;" edge="1" parent="faoZJ6lqI0ZCR2FM0-Pu-13" target="faoZJ6lqI0ZCR2FM0-Pu-3">
          <mxGeometry width="160" relative="1" as="geometry">
            <mxPoint x="60" as="sourcePoint" />
            <mxPoint x="220" as="targetPoint" />
          </mxGeometry>
        </mxCell>
        <mxCell id="faoZJ6lqI0ZCR2FM0-Pu-15" value="Function" style="swimlane;html=1;fontStyle=0;childLayout=stackLayout;horizontal=1;startSize=26;fillColor=none;horizontalStack=0;resizeParent=1;resizeLast=0;collapsible=1;marginBottom=0;swimlaneFillColor=#ffffff;rounded=0;shadow=0;comic=0;labelBackgroundColor=none;strokeWidth=1;fontFamily=Verdana;fontSize=10;align=center;" vertex="1" parent="1">
          <mxGeometry x="58" y="720" width="120" height="78" as="geometry" />
        </mxCell>
        <mxCell id="faoZJ6lqI0ZCR2FM0-Pu-16" value="" style="endArrow=block;startArrow=none;endFill=0;startFill=0;endSize=8;html=1;verticalAlign=bottom;labelBackgroundColor=none;rounded=0;entryX=0.25;entryY=1;entryDx=0;entryDy=0;" edge="1" parent="faoZJ6lqI0ZCR2FM0-Pu-15" target="faoZJ6lqI0ZCR2FM0-Pu-13">
          <mxGeometry width="160" relative="1" as="geometry">
            <mxPoint x="60" as="sourcePoint" />
            <mxPoint x="150" y="-90" as="targetPoint" />
          </mxGeometry>
        </mxCell>
        <mxCell id="faoZJ6lqI0ZCR2FM0-Pu-17" value="GlobalVariable" style="swimlane;html=1;fontStyle=0;childLayout=stackLayout;horizontal=1;startSize=26;fillColor=none;horizontalStack=0;resizeParent=1;resizeLast=0;collapsible=1;marginBottom=0;swimlaneFillColor=#ffffff;rounded=0;shadow=0;comic=0;labelBackgroundColor=none;strokeWidth=1;fontFamily=Verdana;fontSize=10;align=center;" vertex="1" parent="1">
          <mxGeometry x="238" y="720" width="120" height="78" as="geometry" />
        </mxCell>
        <mxCell id="faoZJ6lqI0ZCR2FM0-Pu-18" value="" style="endArrow=block;startArrow=none;endFill=0;startFill=0;endSize=8;html=1;verticalAlign=bottom;labelBackgroundColor=none;rounded=0;entryX=0.5;entryY=1;entryDx=0;entryDy=0;" edge="1" parent="faoZJ6lqI0ZCR2FM0-Pu-17" target="faoZJ6lqI0ZCR2FM0-Pu-13">
          <mxGeometry width="160" relative="1" as="geometry">
            <mxPoint x="60" as="sourcePoint" />
            <mxPoint x="-30" y="-100" as="targetPoint" />
          </mxGeometry>
        </mxCell>
        <mxCell id="faoZJ6lqI0ZCR2FM0-Pu-19" value="ConstInt" style="swimlane;html=1;fontStyle=0;childLayout=stackLayout;horizontal=1;startSize=26;fillColor=none;horizontalStack=0;resizeParent=1;resizeLast=0;collapsible=1;marginBottom=0;swimlaneFillColor=#ffffff;rounded=0;shadow=0;comic=0;labelBackgroundColor=none;strokeWidth=1;fontFamily=Verdana;fontSize=10;align=center;" vertex="1" parent="1">
          <mxGeometry x="28" y="560" width="120" height="78" as="geometry" />
        </mxCell>
        <mxCell id="faoZJ6lqI0ZCR2FM0-Pu-20" value="" style="endArrow=block;startArrow=none;endFill=0;startFill=0;endSize=8;html=1;verticalAlign=bottom;labelBackgroundColor=none;rounded=0;entryX=0;entryY=1;entryDx=0;entryDy=0;" edge="1" parent="faoZJ6lqI0ZCR2FM0-Pu-19" target="faoZJ6lqI0ZCR2FM0-Pu-3">
          <mxGeometry width="160" relative="1" as="geometry">
            <mxPoint x="60" as="sourcePoint" />
            <mxPoint x="220" as="targetPoint" />
          </mxGeometry>
        </mxCell>
        <mxCell id="faoZJ6lqI0ZCR2FM0-Pu-21" value="LocalVariable" style="swimlane;html=1;fontStyle=0;childLayout=stackLayout;horizontal=1;startSize=20;fillColor=none;horizontalStack=0;resizeParent=1;resizeLast=0;collapsible=1;marginBottom=0;swimlaneFillColor=#ffffff;rounded=0;shadow=0;comic=0;labelBackgroundColor=none;strokeWidth=1;fontFamily=Verdana;fontSize=10;align=center;" vertex="1" parent="1">
          <mxGeometry x="204" y="230" width="120" height="82" as="geometry" />
        </mxCell>
        <mxCell id="faoZJ6lqI0ZCR2FM0-Pu-22" value="" style="endArrow=block;startArrow=none;endFill=0;startFill=0;endSize=8;html=1;verticalAlign=bottom;labelBackgroundColor=none;rounded=0;entryX=0.5;entryY=1;entryDx=0;entryDy=0;" edge="1" parent="faoZJ6lqI0ZCR2FM0-Pu-21" target="5d2195bd80daf111-5">
          <mxGeometry width="160" relative="1" as="geometry">
            <mxPoint x="60" as="sourcePoint" />
            <mxPoint x="220" as="targetPoint" />
          </mxGeometry>
        </mxCell>
        <mxCell id="faoZJ6lqI0ZCR2FM0-Pu-24" value="FormalParam" style="swimlane;html=1;fontStyle=0;childLayout=stackLayout;horizontal=1;startSize=20;fillColor=none;horizontalStack=0;resizeParent=1;resizeLast=0;collapsible=1;marginBottom=0;swimlaneFillColor=#ffffff;rounded=0;shadow=0;comic=0;labelBackgroundColor=none;strokeWidth=1;fontFamily=Verdana;fontSize=10;align=center;" vertex="1" parent="1">
          <mxGeometry x="54" y="230" width="120" height="82" as="geometry" />
        </mxCell>
        <mxCell id="faoZJ6lqI0ZCR2FM0-Pu-25" value="" style="endArrow=block;startArrow=none;endFill=0;startFill=0;endSize=8;html=1;verticalAlign=bottom;labelBackgroundColor=none;rounded=0;entryX=0;entryY=1;entryDx=0;entryDy=0;" edge="1" parent="faoZJ6lqI0ZCR2FM0-Pu-24" target="5d2195bd80daf111-5">
          <mxGeometry width="160" relative="1" as="geometry">
            <mxPoint x="60" as="sourcePoint" />
            <mxPoint x="220" as="targetPoint" />
          </mxGeometry>
        </mxCell>
        <mxCell id="faoZJ6lqI0ZCR2FM0-Pu-26" value="Type" style="swimlane;html=1;fontStyle=0;childLayout=stackLayout;horizontal=1;startSize=26;fillColor=none;horizontalStack=0;resizeParent=1;resizeLast=0;collapsible=1;marginBottom=0;swimlaneFillColor=#ffffff;rounded=0;shadow=0;comic=0;labelBackgroundColor=none;strokeWidth=1;fontFamily=Verdana;fontSize=10;align=center;" vertex="1" parent="1">
          <mxGeometry x="35" y="73" width="112" height="83" as="geometry" />
        </mxCell>
        <mxCell id="faoZJ6lqI0ZCR2FM0-Pu-27" value="" style="endArrow=open;html=1;endSize=12;startArrow=diamondThin;startSize=14;startFill=1;align=left;verticalAlign=bottom;rounded=0;exitX=0;exitY=0.5;exitDx=0;exitDy=0;entryX=1;entryY=0.5;entryDx=0;entryDy=0;" edge="1" parent="1" source="faoZJ6lqI0ZCR2FM0-Pu-44" target="faoZJ6lqI0ZCR2FM0-Pu-26">
          <mxGeometry x="-1" y="3" relative="1" as="geometry">
            <mxPoint x="384" y="130" as="sourcePoint" />
            <mxPoint x="634" y="160" as="targetPoint" />
          </mxGeometry>
        </mxCell>
        <mxCell id="faoZJ6lqI0ZCR2FM0-Pu-28" value="Use" style="swimlane;html=1;fontStyle=0;childLayout=stackLayout;horizontal=1;startSize=20;fillColor=none;horizontalStack=0;resizeParent=1;resizeLast=0;collapsible=1;marginBottom=0;swimlaneFillColor=#ffffff;rounded=0;shadow=0;comic=0;labelBackgroundColor=none;strokeWidth=1;fontFamily=Verdana;fontSize=10;align=center;" vertex="1" parent="1">
          <mxGeometry x="554" y="92" width="116" height="83" as="geometry" />
        </mxCell>
        <mxCell id="faoZJ6lqI0ZCR2FM0-Pu-39" value="+ user: User *" style="text;strokeColor=none;fillColor=none;align=left;verticalAlign=top;spacingLeft=4;spacingRight=4;overflow=hidden;rotatable=0;points=[[0,0.5],[1,0.5]];portConstraint=eastwest;whiteSpace=wrap;html=1;" vertex="1" parent="faoZJ6lqI0ZCR2FM0-Pu-28">
          <mxGeometry y="20" width="116" height="26" as="geometry" />
        </mxCell>
        <mxCell id="faoZJ6lqI0ZCR2FM0-Pu-38" value="+ usee: Value *" style="text;strokeColor=none;fillColor=none;align=left;verticalAlign=top;spacingLeft=4;spacingRight=4;overflow=hidden;rotatable=0;points=[[0,0.5],[1,0.5]];portConstraint=eastwest;whiteSpace=wrap;html=1;" vertex="1" parent="faoZJ6lqI0ZCR2FM0-Pu-28">
          <mxGeometry y="46" width="116" height="26" as="geometry" />
        </mxCell>
        <mxCell id="faoZJ6lqI0ZCR2FM0-Pu-33" value="" style="endArrow=open;html=1;endSize=12;startArrow=none;startSize=14;startFill=0;align=left;verticalAlign=bottom;rounded=0;dashed=1;exitX=1;exitY=0.5;exitDx=0;exitDy=0;edgeStyle=orthogonalEdgeStyle;entryX=1;entryY=0.5;entryDx=0;entryDy=0;" edge="1" parent="1" source="faoZJ6lqI0ZCR2FM0-Pu-39" target="17acba5748e5396b-2">
          <mxGeometry x="-0.8439" y="10" relative="1" as="geometry">
            <mxPoint x="712" y="230" as="sourcePoint" />
            <mxPoint x="504" y="300" as="targetPoint" />
            <Array as="points">
              <mxPoint x="694" y="135" />
              <mxPoint x="694" y="270" />
            </Array>
            <mxPoint as="offset" />
          </mxGeometry>
        </mxCell>
        <mxCell id="faoZJ6lqI0ZCR2FM0-Pu-41" value="" style="endArrow=open;html=1;endSize=12;startArrow=none;startSize=14;startFill=0;align=left;verticalAlign=bottom;rounded=0;dashed=1;entryX=1;entryY=0.75;entryDx=0;entryDy=0;exitX=0;exitY=0.5;exitDx=0;exitDy=0;" edge="1" parent="1" source="faoZJ6lqI0ZCR2FM0-Pu-38" target="5d2195bd80daf111-5">
          <mxGeometry x="-0.8439" y="10" relative="1" as="geometry">
            <mxPoint x="652" y="143" as="sourcePoint" />
            <mxPoint x="324" y="100" as="targetPoint" />
            <mxPoint as="offset" />
          </mxGeometry>
        </mxCell>
        <mxCell id="faoZJ6lqI0ZCR2FM0-Pu-42" value="1" style="endArrow=open;html=1;endSize=12;startArrow=diamondThin;startSize=14;startFill=1;align=left;verticalAlign=bottom;rounded=0;entryX=0;entryY=0;entryDx=0;entryDy=0;exitX=1;exitY=0.5;exitDx=0;exitDy=0;" edge="1" parent="1" source="faoZJ6lqI0ZCR2FM0-Pu-35" target="faoZJ6lqI0ZCR2FM0-Pu-28">
          <mxGeometry x="-0.733" y="11" relative="1" as="geometry">
            <mxPoint x="534" y="290" as="sourcePoint" />
            <mxPoint x="694" y="290" as="targetPoint" />
            <mxPoint as="offset" />
          </mxGeometry>
        </mxCell>
        <mxCell id="faoZJ6lqI0ZCR2FM0-Pu-43" value="n" style="edgeLabel;html=1;align=center;verticalAlign=middle;resizable=0;points=[];" vertex="1" connectable="0" parent="faoZJ6lqI0ZCR2FM0-Pu-42">
          <mxGeometry x="0.8833" relative="1" as="geometry">
            <mxPoint x="-12" y="-21" as="offset" />
          </mxGeometry>
        </mxCell>
      </root>
    </mxGraphModel>
  </diagram>
</mxfile>
